<svg width="215" height="80" viewBox="0 0 215 80" fill="none" xmlns="http://www.w3.org/2000/svg">
<g clip-path="url(#clip0_5113_10284)">
<path d="M48 32H54.0244V48.4834H48.1111L48 32Z" fill="#FF710B"/>
<path d="M55.5312 32H60.5357L67.0535 41.134V32H72.0982V48.4834H67.0535L60.576 39.4454V48.4834H55.5312V32Z" fill="#FF710B"/>
<path fill-rule="evenodd" clip-rule="evenodd" d="M158.578 41.7877C161.391 41.0854 164.283 40.7298 167.187 40.7292C167.522 40.7166 167.793 40.5717 168 40.3546V48.3376H163.024C164.276 47.9025 165.51 47.4158 166.722 46.8786C166.926 46.7866 167.096 46.6359 167.21 46.4467C167.324 46.2575 167.376 46.0388 167.359 45.8201C167.359 45.0304 166.653 43.8039 165.74 43.8039C165.656 43.777 165.566 43.777 165.482 43.8039C163.313 44.8811 160.992 45.6398 158.595 46.0553C158.582 45.6803 158.562 45.3101 158.541 44.9411C158.508 44.3347 158.475 43.7313 158.475 43.115C158.458 42.6702 158.492 42.2249 158.578 41.7877ZM155.681 48.3376H146.695C147.366 47.9784 148.007 47.5645 148.612 47.099C150.386 45.7328 151.79 43.9637 152.702 41.946C152.985 41.3182 153.127 40.6386 153.118 39.9528C153.118 38.9393 152.72 38.1116 151.56 38.1116C151.396 38.1116 151.231 38.1327 151.067 38.1539C150.902 38.175 150.738 38.1961 150.573 38.1961C148.721 38.365 146.869 38.5171 145.017 38.5171C143.783 38.5145 142.55 38.4184 141.33 38.2299C142.08 37.3455 143.001 36.6142 144.04 36.0779C145.08 35.5417 146.218 35.211 147.389 35.105H148.86C149.812 35.105 150.833 34.9867 150.833 33.8381C150.836 33.3204 150.67 32.8152 150.359 32.3959C150.251 32.2503 150.127 32.1177 149.99 32H163.337C163.157 32 162.977 32.0031 162.796 32.0092C160.747 32.0092 158.664 32.1269 156.615 32.2949C155.789 32.3621 155.444 33.7062 155.444 34.3447C155.417 34.8339 155.569 35.3167 155.875 35.7056V38.3434C155.634 38.3422 155.395 38.3906 155.174 38.4853C154.953 38.58 154.755 38.7191 154.592 38.8933C154.43 39.0676 154.307 39.2732 154.231 39.4969C154.156 39.7205 154.129 39.9573 154.153 40.1916C154.14 40.5709 154.259 40.9434 154.49 41.2485C154.721 41.5536 155.052 41.7733 155.427 41.8717C155.367 42.9814 155.43 44.0969 155.493 45.208C155.538 45.9979 155.582 46.7855 155.582 47.5674C155.593 47.839 155.624 48.0979 155.681 48.3376ZM163.337 32C164.235 32 165.131 32.0761 166.016 32.2276C166.722 32.3957 166.894 33.3365 166.894 33.9078C166.894 34.479 166.584 35.7392 165.947 35.7392C165.155 35.7392 164.372 35.6384 163.588 35.5375C162.805 35.4367 162.021 35.3359 161.229 35.3359C160.46 35.3275 159.7 35.4943 159.008 35.8232C158.918 36.0714 158.872 36.3327 158.871 36.596C158.906 37.0715 158.906 37.5488 158.871 38.0242C159.551 37.9747 160.228 37.9149 160.904 37.8553C162.521 37.7126 164.131 37.5705 165.758 37.5705C166.024 37.5705 166.287 37.5285 166.55 37.4865C166.812 37.4445 167.075 37.4025 167.342 37.4025C167.616 37.4025 167.832 37.475 168 37.5978V32H163.337ZM135.485 48.3376H139.919C139.74 47.9899 139.634 47.631 139.634 47.3174C139.63 47.146 139.66 46.9754 139.724 46.8158C139.788 46.6561 139.884 46.5106 140.007 46.3878C140.13 46.265 140.276 46.1674 140.438 46.1007C140.6 46.0341 140.774 45.9999 140.95 45.9999C143.225 45.903 145.422 45.1572 147.267 43.8547C147.932 43.36 148.422 42.675 148.669 41.8953H146.627C144.723 41.8953 142.802 42.0304 140.898 42.1994H140.257C139.669 42.1994 137.851 42.0642 137.557 41.4561C137.328 40.9507 137.21 40.4041 137.211 39.8515C137.344 39.0051 137.649 38.193 138.106 37.4623C138.564 36.7316 139.166 36.0969 139.877 35.5948C141.373 33.8924 143.321 32.6545 145.482 32H121.293L121.18 32.1112C121.18 35.5199 121.076 38.9286 120.955 42.4566C120.949 44.0843 120.397 45.6647 119.385 46.9527C118.972 47.4782 118.492 47.9431 117.96 48.3376H123.622C123.644 47.8952 123.692 47.4531 123.739 47.0122L123.739 47.0121C123.803 46.4223 123.866 45.8346 123.866 45.2509C123.866 44.2542 123.546 43.9131 123.264 43.6126C123.042 43.3758 122.844 43.1642 122.844 42.6772C122.882 41.9384 123.19 41.2366 123.713 40.6974C123.713 40.3736 123.735 40.054 123.756 39.7365V39.7365V39.7364C123.777 39.423 123.798 39.1116 123.798 38.8001C123.796 37.979 123.75 37.1586 123.662 36.3419C123.457 36.1928 123.293 35.9977 123.183 35.7736C123.073 35.5495 123.021 35.3029 123.031 35.0551C123.051 34.4101 123.319 33.7955 123.782 33.3317C124.246 32.8679 124.871 32.5881 125.537 32.5473H126.133C129.499 32.367 132.867 32.8729 136.018 34.0321C136.358 34.1984 136.641 34.4571 136.832 34.7764C137.022 35.0958 137.113 35.4621 137.092 35.8305C137.092 37.7783 133.109 40.0578 131.088 41.2145C130.9 41.3216 130.73 41.4191 130.581 41.5058C132.891 42.2998 135.024 43.5089 136.87 45.0694C137.098 45.3194 137.22 45.6436 137.211 45.9769C137.126 46.6863 136.495 48.3361 135.49 48.3361L135.485 48.3376ZM135.222 48.3376L135.217 48.3361C134.702 48.0213 134.201 47.6922 133.701 47.3638L133.701 47.3638C133.127 46.9865 132.554 46.6101 131.962 46.2573C130.743 45.534 129.479 44.8839 128.178 44.3105C127.789 44.1249 127.367 44.0129 126.934 43.9805H126.832C126.707 45.1147 126.679 46.257 126.747 47.3957C126.755 47.5495 126.755 47.7037 126.747 47.8576C126.702 48.0235 126.642 48.1841 126.566 48.3376H135.222ZM103.299 48.3376H110.206C110.108 48.1033 110.054 47.8371 110.054 47.5355C109.996 46.6247 110.016 45.691 110.035 44.765C110.045 44.3049 110.054 43.8466 110.054 43.394C110.054 41.8007 110.076 40.2117 110.097 38.6227L110.097 38.6218L110.097 38.621C110.119 37.032 110.141 35.443 110.141 33.8497C110.141 32.9634 111.267 32.2817 112.099 32.2817C112.253 32.2656 112.409 32.2836 112.556 32.3345C112.702 32.3853 112.835 32.4676 112.944 32.5755C113.054 32.6833 113.138 32.8139 113.189 32.9577C113.241 33.1015 113.259 33.2549 113.243 33.4065V33.5429C113.243 34.8297 113.161 36.1079 113.078 37.3862C112.996 38.6644 112.914 39.9427 112.914 41.2295C112.867 42.3685 112.925 43.5094 113.087 44.6381C113.243 45.3369 113.555 45.9335 114.369 45.9335C114.771 45.9014 115.161 45.7851 115.513 45.5926C118.026 44.3995 118.078 43.019 118.078 40.4795C118.078 38.7752 117.974 37.0709 117.87 35.3665C117.87 34.9511 117.832 34.5272 117.793 34.1011C117.754 33.6708 117.714 33.2382 117.714 32.81C117.714 32.5404 117.888 32.2589 118.15 32H100.974H89.2597C89.4107 32 89.5618 32.0044 89.7126 32.0133C90.4677 32.13 90.6691 33.1468 90.6691 33.7635C90.6691 34.3802 90.4006 35.4303 89.4945 35.4303H88.6891C87.7305 35.5124 86.7993 35.7905 85.954 36.247C84.5346 36.8763 83.2785 37.819 82.2812 39.0033C81.2838 40.1875 80.5715 41.5821 80.1986 43.0811C80.1902 43.1865 80.1902 43.2924 80.1986 43.3978C80.1986 45.0646 82.3296 45.698 83.7223 45.698C85.5339 45.698 87.6885 44.5648 88.9168 43.9187L88.9168 43.9187L88.9168 43.9187C89.4065 43.6612 89.7489 43.4811 89.8637 43.4811C90.7866 43.4811 91.5417 44.6812 91.5417 45.5146C91.5167 46.7318 89.765 47.6857 87.7739 48.3376H95.2146C94.7042 48.0282 94.2354 47.6547 93.8209 47.2253C92.7052 45.9683 92.0797 44.3665 92.0547 42.7026C92.1932 40.6046 92.7958 38.5609 93.8209 36.7126C94.5235 35.4118 95.5441 34.3009 96.7921 33.4787C98.04 32.6565 99.4765 32.1485 100.974 32C102.822 32.0903 104.58 32.8064 105.946 34.0254C107.312 35.2444 108.202 36.8902 108.462 38.6805C108.479 38.9276 108.479 39.1756 108.462 39.4228C108.442 41.311 107.905 43.1594 106.908 44.777C106.012 46.2312 104.774 47.4513 103.299 48.3376ZM78.6879 47.9331C78.8368 48.0778 78.9943 48.2128 79.1594 48.3376H77.6875V46.5588C77.9393 47.0693 78.2774 47.5342 78.6879 47.9331ZM77.6875 32V41.7753C78.2587 39.9697 79.2271 38.3015 80.5342 36.8971C82.6149 34.2969 85.2996 32.0133 88.8066 32.0133C88.9574 32.0044 89.1085 32 89.2595 32H77.6875ZM100.391 35.4697C101.928 35.653 103.339 36.392 104.347 37.5412V37.6102C104.939 38.3666 105.245 39.2997 105.213 40.2514C105.237 41.0852 105.08 41.9147 104.753 42.6853C104.291 43.5478 103.619 44.2865 102.797 44.8371C101.975 45.3877 101.028 45.7335 100.038 45.8444C99.8502 45.8692 99.6601 45.8692 99.4726 45.8444C96.7527 45.3092 95.4457 44.1699 95.4457 41.3562C95.4269 40.5498 95.5736 39.748 95.8769 38.9979C96.1802 38.2478 96.6341 37.5647 97.2119 36.9888C98.025 36.0923 99.1678 35.5463 100.391 35.4697ZM126.747 36.1604C127.575 35.9867 128.421 35.9037 129.269 35.913V35.8305C129.9 35.8305 132.695 35.9789 132.865 36.8203C132.865 37.058 131.605 37.5206 131.044 37.7267C130.943 37.7638 130.864 37.7926 130.82 37.8102C129.525 38.4537 128.195 38.9651 126.866 39.4601C126.694 38.8869 126.613 38.2915 126.627 37.6947C126.625 37.181 126.664 36.668 126.747 36.1604Z" fill="#FF710B"/>
</g>
<defs>
<clipPath id="clip0_5113_10284">
<rect width="120" height="16" fill="white" transform="translate(48 32)"/>
</clipPath>
</defs>
</svg>
