<svg width="215" height="80" viewBox="0 0 215 80" fill="none" xmlns="http://www.w3.org/2000/svg">
<g clip-path="url(#clip0_5136_23715)">
<path d="M0 32H6.02436V48.4834H0.111124L0 32Z" fill="#FF710B"/>
<path d="M7.53125 32H12.5357L19.0535 41.134V32H24.0982V48.4834H19.0535L12.576 39.4454V48.4834H7.53125V32Z" fill="#FF710B"/>
<path fill-rule="evenodd" clip-rule="evenodd" d="M110.578 41.7877C113.391 41.0854 116.283 40.7298 119.187 40.7292C119.522 40.7166 119.793 40.5717 120 40.3546V48.3376H115.024C116.276 47.9025 117.51 47.4158 118.722 46.8786C118.926 46.7866 119.096 46.6359 119.21 46.4467C119.324 46.2575 119.376 46.0388 119.359 45.8201C119.359 45.0304 118.653 43.8039 117.74 43.8039C117.657 43.777 117.566 43.777 117.482 43.8039C115.313 44.8811 112.992 45.6398 110.595 46.0553C110.582 45.6803 110.562 45.3101 110.541 44.9411C110.508 44.3347 110.475 43.7313 110.475 43.115C110.458 42.6702 110.492 42.2249 110.578 41.7877ZM107.681 48.3376H98.6953C99.3659 47.9784 100.007 47.5645 100.612 47.099C102.386 45.7328 103.79 43.9637 104.702 41.946C104.985 41.3182 105.127 40.6386 105.118 39.9528C105.118 38.9393 104.72 38.1116 103.56 38.1116C103.396 38.1116 103.231 38.1327 103.067 38.1539C102.902 38.175 102.738 38.1961 102.573 38.1961C100.721 38.365 98.8694 38.5171 97.0173 38.5171C95.7826 38.5145 94.55 38.4184 93.3305 38.2299C94.0798 37.3455 95.0006 36.6142 96.0403 36.0779C97.0799 35.5417 98.2177 35.211 99.3886 35.105H100.86C101.812 35.105 102.833 34.9867 102.833 33.8381C102.836 33.3204 102.67 32.8152 102.359 32.3959C102.251 32.2503 102.127 32.1177 101.991 32H115.337C115.157 32 114.977 32.0031 114.796 32.0092C112.747 32.0092 110.664 32.1269 108.615 32.2949C107.789 32.3621 107.445 33.7062 107.445 34.3447C107.417 34.8339 107.569 35.3167 107.875 35.7056V38.3434C107.634 38.3422 107.395 38.3906 107.174 38.4853C106.953 38.58 106.755 38.7191 106.592 38.8933C106.43 39.0676 106.307 39.2732 106.231 39.4969C106.156 39.7205 106.129 39.9573 106.153 40.1916C106.14 40.5709 106.259 40.9434 106.49 41.2485C106.721 41.5536 107.052 41.7733 107.427 41.8717C107.367 42.9814 107.43 44.0969 107.493 45.208C107.538 45.9979 107.582 46.7855 107.582 47.5674C107.593 47.839 107.624 48.0979 107.681 48.3376ZM115.337 32C116.235 32 117.131 32.0761 118.016 32.2276C118.722 32.3957 118.894 33.3365 118.894 33.9078C118.894 34.479 118.584 35.7392 117.947 35.7392C117.155 35.7392 116.372 35.6384 115.588 35.5375C114.805 35.4367 114.022 35.3359 113.23 35.3359C112.46 35.3275 111.7 35.4943 111.008 35.8232C110.918 36.0714 110.872 36.3327 110.871 36.596C110.906 37.0715 110.906 37.5488 110.871 38.0242C111.551 37.9747 112.228 37.9149 112.904 37.8553C114.521 37.7126 116.131 37.5705 117.758 37.5705C118.025 37.5705 118.287 37.5285 118.55 37.4865C118.812 37.4445 119.075 37.4025 119.342 37.4025C119.616 37.4025 119.832 37.475 120 37.5978V32H115.337ZM87.4847 48.3376H91.9194C91.74 47.9899 91.6342 47.631 91.6342 47.3174C91.6296 47.146 91.6602 46.9754 91.7242 46.8158C91.7883 46.6561 91.8844 46.5106 92.007 46.3878C92.1297 46.265 92.2763 46.1674 92.4382 46.1007C92.6001 46.0341 92.774 45.9999 92.9497 45.9999C95.2253 45.903 97.4217 45.1572 99.2674 43.8547C99.9324 43.36 100.423 42.675 100.669 41.8953H98.627C96.723 41.8953 94.8018 42.0304 92.8978 42.1994H92.2574C91.6689 42.1994 89.8514 42.0642 89.5571 41.4561C89.3281 40.9507 89.2102 40.4041 89.211 39.8515C89.3445 39.0051 89.6489 38.193 90.1064 37.4623C90.564 36.7316 91.1657 36.0969 91.8766 35.5948C93.3728 33.8924 95.3212 32.6545 97.4823 32H73.2935L73.1804 32.1112C73.1804 35.5199 73.0765 38.9286 72.9551 42.4566C72.9492 44.0843 72.3974 45.6647 71.3853 46.9527C70.9724 47.4782 70.4923 47.9431 69.9599 48.3376H75.6224C75.6439 47.8952 75.6916 47.4531 75.7392 47.0122L75.7392 47.0121C75.8029 46.4223 75.8664 45.8346 75.8664 45.2509C75.8664 44.2542 75.5464 43.9131 75.2644 43.6126C75.0423 43.3758 74.8438 43.1642 74.8438 42.6772C74.8818 41.9384 75.1898 41.2366 75.713 40.6974C75.713 40.3736 75.7346 40.054 75.756 39.7365V39.7365V39.7364C75.7772 39.423 75.7982 39.1116 75.7982 38.8001C75.7957 37.979 75.7502 37.1586 75.6618 36.3419C75.4571 36.1928 75.2928 35.9977 75.183 35.7736C75.0732 35.5495 75.0211 35.3029 75.0313 35.0551C75.0512 34.4101 75.319 33.7955 75.7824 33.3317C76.2458 32.8679 76.8714 32.5881 77.5366 32.5473H78.1331C81.4992 32.367 84.8668 32.8729 88.0182 34.0321C88.3584 34.1984 88.6411 34.4571 88.8318 34.7764C89.0225 35.0958 89.1129 35.4621 89.0919 35.8305C89.0919 37.7783 85.1088 40.0578 83.0877 41.2145L83.0876 41.2145L83.0856 41.2157C82.8993 41.3223 82.7296 41.4194 82.5814 41.5058C84.8908 42.2998 87.0245 43.5089 88.8703 45.0694C89.0982 45.3194 89.22 45.6436 89.2112 45.9769C89.126 46.6863 88.4954 48.3361 87.4898 48.3361L87.4847 48.3376ZM87.2222 48.3376L87.2171 48.3361C86.7016 48.0213 86.2008 47.6922 85.7011 47.3638L85.7011 47.3638C85.127 46.9865 84.5542 46.6101 83.9619 46.2573C82.7431 45.534 81.4795 44.8839 80.1783 44.3105C79.7891 44.1249 79.3668 44.0129 78.9342 43.9805H78.8319C78.7072 45.1147 78.6787 46.257 78.7467 47.3957C78.7552 47.5495 78.7552 47.7037 78.7467 47.8576C78.702 48.0235 78.6416 48.1841 78.5665 48.3376H87.2222ZM55.299 48.3376H62.2058C62.1083 48.1033 62.0542 47.8371 62.0542 47.5355C61.9963 46.6247 62.0158 45.691 62.0351 44.765C62.0447 44.3049 62.0542 43.8466 62.0542 43.394C62.0542 41.8007 62.0759 40.2117 62.0975 38.6227L62.0975 38.6218L62.0975 38.621C62.1192 37.032 62.1408 35.443 62.1408 33.8497C62.1408 32.9634 63.2673 32.2817 64.0992 32.2817C64.2534 32.2656 64.4093 32.2836 64.5556 32.3345C64.7018 32.3853 64.8346 32.4676 64.9442 32.5755C65.0539 32.6833 65.1377 32.8139 65.1894 32.9577C65.2411 33.1015 65.2594 33.2549 65.243 33.4065V33.5429C65.243 34.8297 65.1607 36.1079 65.0784 37.3862C64.9961 38.6644 64.9137 39.9427 64.9137 41.2295C64.867 42.3685 64.9251 43.5094 65.087 44.6381C65.243 45.3369 65.555 45.9335 66.3695 45.9335C66.7711 45.9014 67.1611 45.7851 67.5133 45.5926C70.0262 44.3995 70.0783 43.019 70.0783 40.4795C70.0783 38.7752 69.9743 37.0709 69.8703 35.3665C69.8703 34.9511 69.8317 34.5272 69.7929 34.1011C69.7537 33.6708 69.7143 33.2382 69.7143 32.81C69.7143 32.5404 69.8877 32.2589 70.1501 32H52.9739H41.2597C41.4108 32 41.5618 32.0044 41.7127 32.0133C42.4678 32.13 42.6692 33.1468 42.6692 33.7635C42.6692 34.3802 42.4007 35.4303 41.4946 35.4303H40.6892C39.7305 35.5124 38.7994 35.7905 37.9541 36.247C36.5347 36.8763 35.2786 37.819 34.2812 39.0033C33.2839 40.1875 32.5716 41.5821 32.1987 43.0811C32.1903 43.1865 32.1903 43.2924 32.1987 43.3978C32.1987 45.0646 34.3297 45.698 35.7224 45.698C37.5339 45.698 39.6885 44.5648 40.9168 43.9187L40.9168 43.9187L40.9169 43.9187C41.4065 43.6612 41.749 43.4811 41.8638 43.4811C42.7866 43.4811 43.5417 44.6812 43.5417 45.5146C43.5167 46.7318 41.7651 47.6857 39.7739 48.3376H47.2147C46.7043 48.0282 46.2355 47.6547 45.8209 47.2253C44.7053 45.9683 44.0798 44.3665 44.0547 42.7026C44.1933 40.6046 44.7959 38.5609 45.8209 36.7126C46.5235 35.4118 47.5442 34.3009 48.7921 33.4787C50.0401 32.6565 51.4766 32.1485 52.9739 32C54.8216 32.0903 56.5796 32.8064 57.9461 34.0254C59.3126 35.2444 60.2022 36.8902 60.4624 38.6805C60.4794 38.9276 60.4794 39.1756 60.4624 39.4228C60.4417 41.311 59.9052 43.1594 58.9085 44.777C58.0124 46.2312 56.7737 47.4513 55.299 48.3376ZM30.6879 47.9331C30.8369 48.0778 30.9944 48.2128 31.1594 48.3376H29.6876V46.5588C29.9394 47.0693 30.2774 47.5342 30.6879 47.9331ZM29.6876 32V41.7753C30.2588 39.9697 31.2272 38.3015 32.5343 36.8971C34.615 34.2969 37.2997 32.0133 40.8066 32.0133C40.9575 32.0044 41.1085 32 41.2596 32H29.6876ZM52.3911 35.4697C53.9282 35.653 55.3395 36.392 56.3473 37.5412V37.6102C56.9389 38.3666 57.2447 39.2997 57.2127 40.2514C57.2368 41.0852 57.0803 41.9147 56.7535 42.6853C56.2906 43.5478 55.6189 44.2865 54.7969 44.8371C53.975 45.3877 53.0278 45.7335 52.0378 45.8444C51.8503 45.8692 51.6602 45.8692 51.4726 45.8444C48.7527 45.3092 47.4458 44.1699 47.4458 41.3562C47.427 40.5498 47.5736 39.748 47.877 38.9979C48.1803 38.2478 48.6342 37.5647 49.2119 36.9888C50.0251 36.0923 51.1678 35.5463 52.3911 35.4697ZM78.7467 36.1604C79.5752 35.9867 80.4214 35.9037 81.2691 35.913V35.8305C81.8997 35.8305 84.6948 35.9789 84.8652 36.8203C84.8652 37.058 83.605 37.5206 83.0439 37.7267L83.0437 37.7267L83.0432 37.7269C82.9424 37.7639 82.8642 37.7926 82.82 37.8102C81.5247 38.4537 80.1953 38.9651 78.866 39.4601C78.6937 38.8869 78.6133 38.2915 78.6274 37.6947C78.6247 37.181 78.6646 36.668 78.7467 36.1604Z" fill="#FF710B"/>
</g>
<defs>
<clipPath id="clip0_5136_23715">
<rect width="120" height="16" fill="white" transform="translate(0 32)"/>
</clipPath>
</defs>
</svg>
